<?xml version="1.0" standalone="no"?>
<!DOCTYPE svg PUBLIC "-//W3C//DTD SVG 20010904//EN"
 "http://www.w3.org/TR/2001/REC-SVG-20010904/DTD/svg10.dtd">
<svg version="1.0" xmlns="http://www.w3.org/2000/svg"
 width="1024.000000pt" height="200.000000pt" viewBox="0 0 1024.000000 200.000000"
 preserveAspectRatio="xMidYMid meet">

<g transform="translate(0.000000,200.000000) scale(0.100000,-0.100000)"
fill="#000000" stroke="none">
<path d="M1390 1968 c-58 -40 -75 -72 -75 -141 0 -52 7 -78 43 -159 55 -122
103 -203 121 -203 8 0 45 60 85 140 65 127 71 145 74 210 3 60 0 75 -20 105
-47 70 -160 94 -228 48z m166 -72 c29 -29 34 -41 34 -81 0 -40 -5 -52 -34 -81
-29 -29 -41 -34 -81 -34 -38 0 -52 5 -75 28 -56 57 -48 134 19 179 50 34 96
30 137 -11z"/>
<path d="M2855 1625 l-25 -24 0 -471 0 -471 25 -24 c32 -33 83 -34 113 -2 19
20 22 35 22 103 l0 80 45 44 c24 24 46 42 48 39 2 -2 50 -60 106 -129 57 -69
112 -133 123 -143 50 -43 128 -4 128 64 0 29 -19 56 -120 177 -66 79 -120 147
-120 150 0 3 54 61 120 127 107 109 120 126 120 157 0 45 -34 78 -80 78 -30 0
-51 -17 -195 -160 -88 -88 -164 -160 -168 -160 -4 0 -7 123 -7 273 0 273 0
274 -23 295 -32 30 -81 29 -112 -3z"/>
<path d="M245 1550 c-11 -12 -18 -39 -20 -77 -3 -53 -21 -139 -46 -220 -10
-33 -11 -33 -75 -33 -57 0 -65 -3 -80 -25 -23 -35 -12 -68 31 -88 20 -9 42
-17 50 -17 8 0 15 -1 15 -3 0 -2 -9 -43 -20 -93 -29 -131 -27 -209 8 -275 36
-68 89 -99 174 -99 71 0 106 14 175 68 42 34 61 60 102 143 55 109 58 121 37
138 -21 17 -37 6 -91 -66 -60 -79 -132 -139 -186 -153 -46 -13 -69 -8 -95 21
-31 35 -21 155 27 307 7 19 17 32 27 32 9 0 86 16 169 36 164 40 193 55 193
104 0 45 -33 48 -193 15 -75 -15 -140 -26 -143 -23 -3 3 7 51 21 106 32 129
32 166 0 197 -29 30 -56 32 -80 5z"/>
<path d="M785 1325 l-25 -24 0 -321 0 -321 25 -24 c32 -33 78 -33 110 0 24 24
25 28 25 182 0 153 1 160 28 218 16 33 41 74 56 92 31 37 100 73 140 73 34 0
76 41 76 75 0 14 -11 37 -25 50 -42 43 -147 29 -237 -31 -31 -19 -38 -21 -38
-9 0 27 -47 65 -80 65 -19 0 -40 -9 -55 -25z"/>
<path d="M1445 1325 l-25 -24 0 -321 0 -321 25 -24 c34 -35 86 -34 114 1 20
26 21 38 21 346 l0 319 -25 24 c-15 16 -36 25 -55 25 -19 0 -40 -9 -55 -25z"/>
<path d="M1861 1324 c-21 -26 -21 -37 -21 -484 0 -447 0 -458 21 -484 27 -35
86 -36 117 -3 20 22 22 33 22 165 0 78 4 142 8 142 5 0 28 -10 53 -22 37 -19
60 -23 144 -23 95 0 103 2 163 34 144 78 220 232 192 389 -21 124 -86 215
-192 273 -60 32 -68 34 -163 34 -87 0 -107 -3 -150 -25 l-51 -25 -23 27 c-31
39 -91 39 -120 2z m416 -145 c71 -27 127 -114 127 -199 1 -140 -125 -247 -247
-210 -117 34 -178 151 -143 272 16 56 69 118 116 137 34 13 112 13 147 0z"/>
<path d="M3819 1334 c-101 -35 -194 -135 -225 -242 -24 -80 -16 -200 18 -274
35 -75 94 -138 165 -174 52 -26 68 -29 153 -29 91 0 130 10 200 52 3 2 10 -7
15 -19 22 -49 107 -48 132 2 9 18 13 105 13 330 0 330 -3 347 -53 364 -43 15
-85 -6 -103 -52 -1 -1 -25 10 -53 25 -67 34 -190 42 -262 17z m164 -145 c84
-23 146 -111 147 -207 1 -179 -180 -279 -318 -175 -130 98 -87 337 68 381 47
14 59 14 103 1z"/>
<path d="M4610 1330 c-19 -19 -20 -33 -20 -350 0 -317 1 -331 20 -350 28 -28
81 -26 108 3 21 22 22 33 22 174 0 169 8 206 65 288 43 62 91 95 147 102 56 7
88 36 88 80 0 47 -29 73 -83 73 -59 0 -131 -23 -172 -54 -40 -31 -45 -32 -45
-8 0 52 -91 81 -130 42z"/>
<path d="M5424 1336 c-23 -7 -61 -27 -86 -44 -197 -135 -222 -418 -51 -584 71
-69 149 -102 243 -103 66 0 85 5 142 33 75 37 142 104 179 179 21 42 24 63 24
158 0 101 -2 115 -28 168 -36 72 -107 146 -172 177 -60 29 -187 37 -251 16z
m196 -166 c104 -53 141 -203 77 -313 -57 -96 -195 -122 -290 -55 -62 45 -91
155 -64 249 35 118 168 175 277 119z"/>
<path d="M6343 1329 c-125 -49 -222 -185 -231 -323 -12 -188 100 -347 277
-392 160 -40 323 43 400 206 23 48 26 68 26 155 0 88 -3 107 -27 157 -34 73
-108 153 -173 186 -70 36 -197 41 -272 11z m215 -160 c120 -59 146 -242 48
-344 -76 -80 -189 -85 -270 -14 -101 88 -82 295 33 356 57 30 129 31 189 2z"/>
<path d="M7583 1336 c-264 -86 -354 -401 -172 -601 126 -138 334 -166 491 -66
74 47 79 119 12 147 -35 15 -38 14 -97 -18 -105 -55 -214 -41 -289 39 -128
134 -28 354 163 357 44 1 69 -6 121 -32 71 -37 107 -36 133 1 58 83 -63 178
-235 184 -53 2 -101 -2 -127 -11z"/>
<path d="M8430 1341 c-94 -29 -181 -105 -227 -199 -25 -51 -28 -67 -28 -162 0
-99 2 -110 32 -171 82 -166 263 -243 431 -185 75 26 170 116 206 195 87 195
-8 439 -200 511 -56 21 -163 26 -214 11z m207 -187 c115 -91 112 -276 -6 -359
-36 -26 -52 -30 -104 -30 -125 1 -197 79 -197 214 1 140 74 214 207 208 52 -2
69 -8 100 -33z"/>
<path d="M9160 1328 c-19 -21 -20 -34 -20 -348 l0 -327 23 -21 c27 -25 73 -28
102 -6 19 14 20 30 25 237 4 199 7 225 25 255 54 91 171 103 245 27 l35 -36 5
-222 c3 -122 9 -230 14 -240 21 -44 94 -51 125 -11 20 25 21 40 21 233 0 195
2 208 23 245 29 52 77 80 139 80 54 0 89 -21 126 -74 21 -32 22 -41 22 -247 0
-214 0 -214 25 -238 34 -35 86 -34 115 2 21 26 21 35 18 253 -3 219 -4 227
-29 280 -53 110 -144 172 -266 178 -88 5 -154 -15 -210 -63 -39 -33 -41 -34
-57 -16 -9 10 -40 31 -69 47 -47 26 -61 29 -147 29 -72 0 -103 -4 -127 -18
-32 -17 -33 -17 -53 3 -27 27 -83 27 -110 -2z"/>
<path d="M7103 805 c-71 -30 -88 -121 -34 -176 24 -24 38 -29 76 -29 65 0 105
39 105 102 0 52 -21 85 -66 104 -40 17 -41 17 -81 -1z"/>
<path d="M2184 437 c-2 -7 -3 -85 -2 -172 3 -152 4 -160 23 -160 19 0 20 8 25
115 l5 115 38 -53 c21 -28 45 -52 53 -52 7 0 31 23 51 51 l38 50 3 -105 c2
-77 7 -107 17 -116 12 -10 18 -10 30 0 12 10 15 42 15 165 0 123 -3 155 -15
165 -20 16 -32 6 -91 -77 -25 -36 -50 -61 -54 -56 -4 4 -28 38 -54 76 -46 64
-71 81 -82 54z"/>
<path d="M3072 438 c-8 -8 -12 -59 -12 -164 0 -122 3 -154 15 -164 21 -17 45
4 45 39 0 15 6 33 12 39 10 10 22 1 59 -40 44 -49 49 -52 64 -37 15 15 13 20
-24 67 -23 28 -41 54 -41 58 0 4 19 27 41 51 38 41 40 46 25 61 -15 15 -21 12
-76 -43 l-60 -59 0 90 c0 82 -8 114 -30 114 -3 0 -11 -5 -18 -12z"/>
<path d="M5552 438 c-7 -7 -12 -29 -12 -49 0 -28 -5 -38 -20 -42 -11 -3 -20
-13 -20 -22 0 -9 9 -19 20 -22 18 -5 20 -14 20 -84 0 -66 3 -82 20 -99 11 -11
27 -20 35 -20 23 0 30 28 11 49 -11 12 -16 36 -16 80 0 54 3 64 20 68 26 7 26
43 1 50 -16 4 -21 15 -23 51 -3 47 -15 61 -36 40z"/>
<path d="M6074 436 c-9 -24 4 -48 23 -44 12 2 18 12 18 28 0 29 -32 41 -41 16z"/>
<path d="M2724 340 c-11 -4 -33 -22 -47 -40 -74 -87 9 -221 118 -192 27 7 44
7 52 0 26 -21 33 5 33 117 0 114 -7 138 -34 116 -10 -8 -22 -8 -40 -1 -32 12
-53 12 -82 0z m83 -62 c44 -42 18 -128 -39 -128 -62 0 -91 90 -42 129 34 27
52 26 81 -1z"/>
<path d="M3465 336 c-98 -43 -88 -196 15 -227 44 -13 78 -7 111 20 19 16 21
22 12 32 -10 10 -18 10 -38 1 -38 -18 -72 -15 -95 8 -34 34 -24 40 70 40 90 0
90 0 90 25 0 42 -29 85 -65 101 -42 17 -61 17 -100 0z m105 -58 l25 -23 -69
-3 c-38 -2 -71 -1 -74 2 -3 3 3 15 13 26 25 27 75 26 105 -2z"/>
<path d="M3937 344 c-11 -11 -8 -173 3 -195 16 -28 68 -52 101 -45 16 3 29 2
29 -2 0 -20 -28 -32 -72 -32 -40 0 -48 -3 -48 -19 0 -23 19 -31 71 -31 29 0
47 8 71 29 l33 29 0 134 c0 126 -1 133 -20 133 -18 0 -20 -8 -23 -80 -4 -105
-34 -140 -87 -101 -15 11 -20 31 -25 97 -5 75 -15 101 -33 83z"/>
<path d="M4365 336 c-42 -18 -68 -62 -68 -112 0 -78 64 -134 136 -120 39 7 83
51 94 94 10 40 -17 103 -56 129 -38 26 -63 28 -106 9z m90 -61 c14 -13 25 -36
25 -50 0 -30 -41 -75 -68 -75 -36 0 -66 34 -66 75 0 68 63 97 109 50z"/>
<path d="M4692 338 c-17 -17 -15 -131 2 -173 30 -71 120 -83 171 -23 24 28 26
36 23 117 -3 78 -5 86 -23 86 -18 0 -20 -8 -23 -80 -4 -105 -34 -140 -88 -101
-15 12 -20 30 -24 97 -5 82 -14 101 -38 77z"/>
<path d="M5087 343 c-12 -11 -8 -231 3 -238 23 -14 40 17 40 75 0 48 5 64 26
89 14 17 34 31 44 31 22 0 32 24 17 39 -14 14 -26 14 -59 -3 -23 -12 -29 -12
-39 0 -13 15 -22 18 -32 7z"/>
<path d="M5774 337 c-2 -7 -3 -62 -2 -123 3 -101 4 -109 23 -109 17 0 21 8 25
65 7 79 21 107 66 126 24 10 34 20 32 32 -4 23 -32 27 -67 9 -25 -13 -31 -13
-35 -1 -7 18 -35 18 -42 1z"/>
<path d="M6075 338 c-3 -8 -4 -63 -3 -124 3 -101 4 -109 23 -109 19 0 20 7 20
120 0 106 -2 120 -18 123 -9 2 -19 -3 -22 -10z"/>
<path d="M6294 337 c-2 -7 -3 -82 -2 -167 3 -147 4 -155 23 -155 17 0 20 8 23
53 3 46 6 53 20 46 37 -15 71 -15 101 1 38 19 71 69 71 108 0 83 -95 152 -162
116 -14 -8 -23 -8 -31 0 -15 15 -37 14 -43 -2z m161 -62 c14 -13 25 -36 25
-50 0 -31 -41 -75 -70 -75 -29 0 -70 44 -70 75 0 31 41 75 70 75 12 0 32 -11
45 -25z"/>
<path d="M6900 332 c-21 -10 -42 -32 -54 -55 -50 -104 57 -211 161 -161 21 11
38 26 38 34 0 15 -12 16 -73 4 -36 -7 -82 16 -82 41 0 11 19 15 87 17 78 3 88
5 92 23 5 30 -28 82 -64 99 -42 20 -62 20 -105 -2z m110 -57 l23 -25 -77 0
c-73 0 -78 1 -65 18 22 27 32 32 65 32 20 0 39 -9 54 -25z"/>
<path d="M7274 334 c-87 -43 -86 -177 3 -219 31 -15 44 -16 78 -7 27 7 44 7
52 0 26 -21 33 5 33 117 0 114 -7 138 -34 116 -10 -8 -22 -8 -40 -1 -36 13
-55 12 -92 -6z m90 -55 c48 -38 20 -129 -41 -129 -57 0 -84 82 -41 127 27 28
48 29 82 2z"/>
<path d="M7659 339 c-15 -6 -32 -23 -39 -39 -18 -43 6 -76 65 -91 60 -15 76
-35 41 -50 -22 -10 -33 -9 -63 5 -24 11 -39 14 -46 7 -29 -29 50 -78 109 -66
32 6 74 45 74 70 0 27 -43 65 -86 76 -51 13 -60 22 -39 39 13 11 23 11 54 0
64 -21 83 7 29 40 -36 22 -59 24 -99 9z"/>
<path d="M7957 344 c-4 -4 -7 -46 -7 -93 0 -66 4 -91 18 -107 27 -34 60 -47
100 -39 l37 7 -19 -21 c-14 -16 -31 -21 -68 -21 -40 0 -48 -3 -48 -19 0 -43
95 -44 142 -2 l33 29 3 131 c3 115 2 132 -13 137 -26 10 -35 -14 -35 -92 0
-81 -19 -111 -63 -100 -32 8 -39 25 -46 115 -6 68 -16 92 -34 75z"/>
</g>
</svg>
